solid LuaCAD_Model
facet normal 0.862856 0.357407 0.357407
 outer loop
  vertex 0.5 0.5 0.707107
  vertex 0.707107 0 0.707107
  vertex 0.707107 0.707107 0
 endloop
endfacet
facet normal 0.862856 0.357407 0.357407
 outer loop
  vertex 0.707107 0 0.707107
  vertex 1 0 0
  vertex 0.707107 0.707107 0
 endloop
endfacet
facet normal 0.862856 0.357407 -0.357407
 outer loop
  vertex 0.5 0.5 -0.707107
  vertex 0.707107 0.707107 0
  vertex 1 0 0
 endloop
endfacet
facet normal 0.862856 0.357407 -0.357407
 outer loop
  vertex 0.5 0.5 -0.707107
  vertex 1 0 0
  vertex 0.707107 0 -0.707107
 endloop
endfacet
facet normal 0.377964 0.156558 0.912487
 outer loop
  vertex 0 0 1
  vertex 0.707107 0 0.707107
  vertex 0.5 0.5 0.707107
 endloop
endfacet
facet normal 0.377964 0.156558 -0.912487
 outer loop
  vertex 0 0 -1
  vertex 0.5 0.5 -0.707107
  vertex 0.707107 0 -0.707107
 endloop
endfacet
facet normal 0.357407 0.862856 0.357407
 outer loop
  vertex 4.32978e-17 0.707107 0.707107
  vertex 0.5 0.5 0.707107
  vertex 6.12323e-17 1 0
 endloop
endfacet
facet normal 0.357407 0.862856 0.357407
 outer loop
  vertex 6.12323e-17 1 0
  vertex 0.5 0.5 0.707107
  vertex 0.707107 0.707107 0
 endloop
endfacet
facet normal 0.357407 0.862856 -0.357407
 outer loop
  vertex 4.32978e-17 0.707107 -0.707107
  vertex 6.12323e-17 1 0
  vertex 0.707107 0.707107 0
 endloop
endfacet
facet normal 0.357407 0.862856 -0.357407
 outer loop
  vertex 4.32978e-17 0.707107 -0.707107
  vertex 0.707107 0.707107 0
  vertex 0.5 0.5 -0.707107
 endloop
endfacet
facet normal 0.156558 0.377964 0.912487
 outer loop
  vertex 0 0 1
  vertex 0.5 0.5 0.707107
  vertex 4.32978e-17 0.707107 0.707107
 endloop
endfacet
facet normal 0.156558 0.377964 -0.912487
 outer loop
  vertex 0 0 -1
  vertex 4.32978e-17 0.707107 -0.707107
  vertex 0.5 0.5 -0.707107
 endloop
endfacet
facet normal -0.357407 0.862856 0.357407
 outer loop
  vertex -0.707107 0.707107 0
  vertex -0.5 0.5 0.707107
  vertex 4.32978e-17 0.707107 0.707107
 endloop
endfacet
facet normal -0.357407 0.862856 0.357407
 outer loop
  vertex -0.707107 0.707107 0
  vertex 4.32978e-17 0.707107 0.707107
  vertex 6.12323e-17 1 0
 endloop
endfacet
facet normal -0.357407 0.862856 -0.357407
 outer loop
  vertex -0.707107 0.707107 0
  vertex 6.12323e-17 1 0
  vertex -0.5 0.5 -0.707107
 endloop
endfacet
facet normal -0.357407 0.862856 -0.357407
 outer loop
  vertex -0.5 0.5 -0.707107
  vertex 6.12323e-17 1 0
  vertex 4.32978e-17 0.707107 -0.707107
 endloop
endfacet
facet normal -0.156558 0.377964 0.912487
 outer loop
  vertex -0.5 0.5 0.707107
  vertex 0 0 1
  vertex 4.32978e-17 0.707107 0.707107
 endloop
endfacet
facet normal -0.156558 0.377964 -0.912487
 outer loop
  vertex -0.5 0.5 -0.707107
  vertex 4.32978e-17 0.707107 -0.707107
  vertex 0 0 -1
 endloop
endfacet
facet normal -0.862856 0.357407 0.357407
 outer loop
  vertex -1 1.22465e-16 0
  vertex -0.707107 8.65956e-17 0.707107
  vertex -0.5 0.5 0.707107
 endloop
endfacet
facet normal -0.862856 0.357407 0.357407
 outer loop
  vertex -1 1.22465e-16 0
  vertex -0.5 0.5 0.707107
  vertex -0.707107 0.707107 0
 endloop
endfacet
facet normal -0.862856 0.357407 -0.357407
 outer loop
  vertex -1 1.22465e-16 0
  vertex -0.707107 0.707107 0
  vertex -0.707107 8.65956e-17 -0.707107
 endloop
endfacet
facet normal -0.862856 0.357407 -0.357407
 outer loop
  vertex -0.707107 8.65956e-17 -0.707107
  vertex -0.707107 0.707107 0
  vertex -0.5 0.5 -0.707107
 endloop
endfacet
facet normal -0.377964 0.156558 0.912487
 outer loop
  vertex -0.707107 8.65956e-17 0.707107
  vertex 0 0 1
  vertex -0.5 0.5 0.707107
 endloop
endfacet
facet normal -0.377964 0.156558 -0.912487
 outer loop
  vertex -0.707107 8.65956e-17 -0.707107
  vertex -0.5 0.5 -0.707107
  vertex 0 0 -1
 endloop
endfacet
facet normal -0.862856 -0.357407 0.357407
 outer loop
  vertex -0.707107 -0.707107 0
  vertex -0.5 -0.5 0.707107
  vertex -0.707107 8.65956e-17 0.707107
 endloop
endfacet
facet normal -0.862856 -0.357407 0.357407
 outer loop
  vertex -1 1.22465e-16 0
  vertex -0.707107 -0.707107 0
  vertex -0.707107 8.65956e-17 0.707107
 endloop
endfacet
facet normal -0.862856 -0.357407 -0.357407
 outer loop
  vertex -1 1.22465e-16 0
  vertex -0.5 -0.5 -0.707107
  vertex -0.707107 -0.707107 0
 endloop
endfacet
facet normal -0.862856 -0.357407 -0.357407
 outer loop
  vertex -1 1.22465e-16 0
  vertex -0.707107 8.65956e-17 -0.707107
  vertex -0.5 -0.5 -0.707107
 endloop
endfacet
facet normal -0.377964 -0.156558 0.912487
 outer loop
  vertex -0.707107 8.65956e-17 0.707107
  vertex -0.5 -0.5 0.707107
  vertex 0 0 1
 endloop
endfacet
facet normal -0.377964 -0.156558 -0.912487
 outer loop
  vertex -0.707107 8.65956e-17 -0.707107
  vertex 0 0 -1
  vertex -0.5 -0.5 -0.707107
 endloop
endfacet
facet normal -0.357407 -0.862856 0.357407
 outer loop
  vertex -0.5 -0.5 0.707107
  vertex -1.83697e-16 -1 0
  vertex -1.29893e-16 -0.707107 0.707107
 endloop
endfacet
facet normal -0.357407 -0.862856 0.357407
 outer loop
  vertex -0.707107 -0.707107 0
  vertex -1.83697e-16 -1 0
  vertex -0.5 -0.5 0.707107
 endloop
endfacet
facet normal -0.357407 -0.862856 -0.357407
 outer loop
  vertex -0.707107 -0.707107 0
  vertex -1.29893e-16 -0.707107 -0.707107
  vertex -1.83697e-16 -1 0
 endloop
endfacet
facet normal -0.357407 -0.862856 -0.357407
 outer loop
  vertex -0.707107 -0.707107 0
  vertex -0.5 -0.5 -0.707107
  vertex -1.29893e-16 -0.707107 -0.707107
 endloop
endfacet
facet normal -0.156558 -0.377964 0.912487
 outer loop
  vertex -0.5 -0.5 0.707107
  vertex -1.29893e-16 -0.707107 0.707107
  vertex 0 0 1
 endloop
endfacet
facet normal -0.156558 -0.377964 -0.912487
 outer loop
  vertex -0.5 -0.5 -0.707107
  vertex 0 0 -1
  vertex -1.29893e-16 -0.707107 -0.707107
 endloop
endfacet
facet normal 0.357407 -0.862856 0.357407
 outer loop
  vertex -1.29893e-16 -0.707107 0.707107
  vertex 0.707107 -0.707107 0
  vertex 0.5 -0.5 0.707107
 endloop
endfacet
facet normal 0.357407 -0.862856 0.357407
 outer loop
  vertex -1.83697e-16 -1 0
  vertex 0.707107 -0.707107 0
  vertex -1.29893e-16 -0.707107 0.707107
 endloop
endfacet
facet normal 0.357407 -0.862856 -0.357407
 outer loop
  vertex -1.83697e-16 -1 0
  vertex 0.5 -0.5 -0.707107
  vertex 0.707107 -0.707107 0
 endloop
endfacet
facet normal 0.357407 -0.862856 -0.357407
 outer loop
  vertex -1.83697e-16 -1 0
  vertex -1.29893e-16 -0.707107 -0.707107
  vertex 0.5 -0.5 -0.707107
 endloop
endfacet
facet normal 0.156558 -0.377964 0.912487
 outer loop
  vertex -1.29893e-16 -0.707107 0.707107
  vertex 0.5 -0.5 0.707107
  vertex 0 0 1
 endloop
endfacet
facet normal 0.156558 -0.377964 -0.912487
 outer loop
  vertex -1.29893e-16 -0.707107 -0.707107
  vertex 0 0 -1
  vertex 0.5 -0.5 -0.707107
 endloop
endfacet
facet normal 0.862856 -0.357407 0.357407
 outer loop
  vertex 0.5 -0.5 0.707107
  vertex 1 0 0
  vertex 0.707107 0 0.707107
 endloop
endfacet
facet normal 0.862856 -0.357407 0.357407
 outer loop
  vertex 0.5 -0.5 0.707107
  vertex 0.707107 -0.707107 0
  vertex 1 0 0
 endloop
endfacet
facet normal 0.862856 -0.357407 -0.357407
 outer loop
  vertex 0.707107 -0.707107 0
  vertex 0.707107 0 -0.707107
  vertex 1 0 0
 endloop
endfacet
facet normal 0.862856 -0.357407 -0.357407
 outer loop
  vertex 0.5 -0.5 -0.707107
  vertex 0.707107 0 -0.707107
  vertex 0.707107 -0.707107 0
 endloop
endfacet
facet normal 0.377964 -0.156558 0.912487
 outer loop
  vertex 0 0 1
  vertex 0.5 -0.5 0.707107
  vertex 0.707107 0 0.707107
 endloop
endfacet
facet normal 0.377964 -0.156558 -0.912487
 outer loop
  vertex 0 0 -1
  vertex 0.707107 0 -0.707107
  vertex 0.5 -0.5 -0.707107
 endloop
endfacet
endsolid LuaCAD_Model
